<?xml version="1.0" encoding="UTF-8" standalone="no"?>
<!DOCTYPE svg PUBLIC "-//W3C//DTD SVG 1.1//EN" "http://www.w3.org/Graphics/SVG/1.1/DTD/svg11.dtd">
<svg xmlns="http://www.w3.org/2000/svg" version="1.1" viewBox="0.00 0.00 520.00 488.00">
<path fill="#ffffff" d="
  M 299.62 319.50
  Q 299.79 318.60 300.28 317.80
  Q 305.81 308.74 307.38 297.86
  Q 308.94 287.12 305.73 276.78
  C 300.80 260.85 287.88 248.68 271.50 244.47
  C 270.29 244.16 268.70 244.22 267.32 243.62
  Q 266.80 243.40 265.64 243.31
  Q 238.83 241.25 222.39 261.38
  Q 215.57 269.73 213.24 280.77
  Q 209.64 297.84 217.50 313.23
  Q 223.85 325.67 226.27 334.55
  Q 230.90 351.46 231.83 359.64
  Q 233.21 371.75 231.83 382.66
  C 230.90 390.05 228.55 399.66 226.72 406.36
  Q 223.23 419.14 216.39 430.14
  Q 214.45 433.27 207.44 442.93
  Q 200.16 452.96 190.42 460.43
  Q 184.22 465.18 177.76 469.52
  Q 171.20 473.93 164.10 477.03
  C 153.09 481.83 138.65 485.02 127.08 486.56
  Q 122.05 487.23 118.83 487.18
  Q 116.49 487.13 110.54 487.13
  A 4.08 3.92 50.9 0 1 109.57 487.01
  Q 107.41 486.47 104.94 486.33
  Q 102.62 486.19 100.30 485.67
  Q 81.72 481.48 77.62 480.11
  Q 66.26 476.30 56.57 470.16
  Q 54.01 468.54 43.88 461.12
  Q 35.64 455.09 28.79 446.49
  Q 20.77 436.42 16.47 429.11
  Q 10.67 419.24 8.36 411.68
  Q 5.54 402.45 3.69 394.51
  Q 2.84 390.88 2.39 387.99
  Q 2.26 387.16 2.04 386.63
  A 2.36 2.23 -58.3 0 1 1.87 385.81
  Q 1.78 381.55 0.93 378.24
  A 2.27 1.99 41.3 0 1 0.86 377.70
  L 0.86 364.88
  A 3.63 3.50 53.4 0 1 0.98 363.96
  Q 1.47 362.10 1.67 359.47
  Q 1.83 357.33 2.33 355.07
  Q 6.17 337.50 7.95 331.94
  Q 11.55 320.64 17.84 311.08
  C 24.81 300.49 31.89 290.81 41.31 283.31
  Q 47.21 278.62 55.80 272.79
  Q 66.75 265.37 80.28 261.55
  Q 90.33 258.72 100.23 256.72
  A 1.65 1.61 -68.2 0 0 100.82 256.46
  L 101.37 256.07
  A 0.37 0.23 13.3 0 1 101.52 256.02
  Q 105.52 255.70 110.25 254.83
  Q 126.84 251.80 139.35 240.88
  Q 151.46 230.31 156.69 216.45
  Q 156.92 215.84 156.94 215.33
  A 0.74 0.73 71.1 0 1 157.20 214.79
  C 158.22 213.94 157.50 212.64 158.30 211.67
  A 1.31 1.20 74.6 0 0 158.52 211.24
  Q 164.75 188.40 154.76 166.99
  Q 154.35 166.11 154.43 164.94
  A 2.12 2.02 -54.4 0 0 154.30 164.02
  Q 151.63 156.95 150.96 154.53
  Q 149.69 149.88 146.29 135.28
  C 145.73 132.85 145.76 130.67 145.06 128.47
  A 4.09 3.84 -57.3 0 1 144.88 127.50
  Q 144.08 112.86 144.99 106.08
  Q 146.30 96.35 150.36 81.33
  Q 154.09 67.51 161.78 56.02
  Q 169.02 45.22 174.19 39.18
  Q 180.04 32.36 187.52 26.78
  Q 187.61 26.71 195.79 20.77
  Q 208.53 11.54 223.22 7.26
  Q 225.89 6.48 239.96 3.17
  C 241.70 2.76 243.49 2.76 245.05 2.09
  A 2.72 2.64 31.1 0 1 246.04 1.86
  Q 250.16 1.71 252.89 0.99
  A 3.79 3.71 36.8 0 1 253.87 0.86
  L 266.30 0.86
  A 5.01 4.75 -37.1 0 1 267.38 0.98
  Q 270.72 1.76 273.97 1.82
  A 5.56 5.42 -35.4 0 1 275.51 2.06
  Q 276.25 2.29 291.50 5.83
  Q 306.25 9.24 317.16 15.95
  Q 328.63 22.99 335.65 28.92
  Q 344.14 36.09 348.64 41.94
  C 356.36 51.97 363.83 62.18 367.90 74.30
  Q 372.64 88.37 375.20 104.25
  Q 377.21 116.76 375.16 129.50
  Q 372.20 147.95 367.00 161.29
  C 362.33 173.28 358.57 184.12 359.11 195.61
  Q 359.79 210.14 365.45 221.32
  Q 376.64 243.44 400.39 252.42
  Q 405.56 254.38 419.50 256.90
  Q 430.68 258.93 441.82 262.12
  A 1.79 1.75 67.4 0 1 442.22 262.29
  Q 443.36 263.03 444.76 262.96
  Q 444.92 262.95 446.96 263.89
  Q 448.31 264.52 452.70 266.33
  Q 458.42 268.69 466.89 274.63
  Q 474.06 279.67 478.99 283.54
  C 488.42 290.96 496.75 302.42 503.23 312.76
  Q 508.95 321.90 512.12 332.28
  Q 516.89 347.89 518.94 363.77
  Q 519.44 367.60 518.98 376.97
  Q 518.70 382.88 516.78 392.15
  Q 515.10 400.29 513.15 407.03
  Q 509.21 420.69 501.67 432.16
  C 495.10 442.17 487.64 452.07 477.81 459.80
  Q 473.51 463.18 466.38 468.13
  Q 460.36 472.32 454.23 475.31
  C 443.14 480.73 431.36 483.13 419.63 485.65
  C 416.54 486.31 413.17 486.24 410.45 487.00
  A 3.72 3.47 -51.1 0 1 409.46 487.14
  C 402.28 487.15 399.07 487.46 393.26 486.62
  Q 375.65 484.06 361.29 479.08
  Q 350.64 475.40 341.63 469.13
  Q 334.54 464.20 330.26 460.98
  Q 320.14 453.36 312.58 442.97
  Q 307.94 436.58 303.40 429.89
  Q 301.67 427.34 297.51 418.54
  Q 295.24 413.75 293.42 406.49
  Q 288.86 388.36 287.93 381.50
  Q 287.53 378.55 287.56 367.85
  Q 287.57 361.54 289.09 354.30
  Q 291.77 341.53 293.57 335.09
  Q 295.54 328.03 299.24 319.84
  A 0.13 0.13 0.0 0 1 299.30 319.78
  L 299.53 319.66
  A 0.24 0.14 88.7 0 0 299.62 319.50
  Z"
/>
</svg>
