<?xml version="1.0" encoding="UTF-8" standalone="no"?>
<svg
   xmlns:dc="http://purl.org/dc/elements/1.1/"
   xmlns:cc="http://creativecommons.org/ns#"
   xmlns:rdf="http://www.w3.org/1999/02/22-rdf-syntax-ns#"
   xmlns:svg="http://www.w3.org/2000/svg"
   xmlns="http://www.w3.org/2000/svg"
   xmlns:sodipodi="http://sodipodi.sourceforge.net/DTD/sodipodi-0.dtd"
   xmlns:inkscape="http://www.inkscape.org/namespaces/inkscape"
   width="204.63939"
   height="193.90254"
   viewBox="0 0 194 194"
   id="svg2"
   sodipodi:version="0.32"
   inkscape:version="0.46"
   sodipodi:docname="ACS logo.svg"
   inkscape:output_extension="org.inkscape.output.svg.inkscape"
   version="1.0">
  <metadata
     id="metadata39">
    <rdf:RDF>
      <cc:Work
         rdf:about="">
        <dc:format>image/svg+xml</dc:format>
        <dc:type
           rdf:resource="http://purl.org/dc/dcmitype/StillImage" />
      </cc:Work>
    </rdf:RDF>
  </metadata>
  <defs
     id="defs37">
    <inkscape:perspective
       sodipodi:type="inkscape:persp3d"
       inkscape:vp_x="0 : 121.25 : 1"
       inkscape:vp_y="0 : 1000 : 0"
       inkscape:vp_z="242.5 : 121.25 : 1"
       inkscape:persp3d-origin="121.25 : 80.833333 : 1"
       id="perspective41" />
  </defs>
  <sodipodi:namedview
     inkscape:window-height="672"
     inkscape:window-width="640"
     inkscape:pageshadow="2"
     inkscape:pageopacity="0.0"
     guidetolerance="10.0"
     gridtolerance="10.0"
     objecttolerance="10.0"
     borderopacity="1.0"
     bordercolor="#666666"
     pagecolor="#ffffff"
     id="base"
     showgrid="false"
     inkscape:zoom="1.9051546"
     inkscape:cx="121.25"
     inkscape:cy="96.647494"
     inkscape:window-x="110"
     inkscape:window-y="115"
     inkscape:current-layer="svg2" />
  <g
     id="g2414"
     transform="matrix(1.1628813,0,0,1.1628813,-15.562229,-16.03846)">
    <g
       id="g4"
       style="fill:#fbb900;fill-rule:evenodd;stroke:none;stroke-width:1;stroke-linecap:butt;stroke-linejoin:miter;stroke-dasharray:none"
       transform="translate(31.6045,97.4365)">
      <path
         id="path6"
         d="M 77.0245,65.2755 C 77.0245,65.2755 136.208,0 136.208,0 C 136.208,0 0,3.0465 0,3.0465 C 0,3.0465 50.915,64.4055 50.915,64.4055 C 50.915,64.4055 77.0245,65.2755 77.0245,65.2755 z" />
    </g>
    <g
       id="g8"
       style="fill:#fbb900;fill-rule:evenodd;stroke:none;stroke-width:1;stroke-linecap:butt;stroke-linejoin:miter;stroke-dasharray:none"
       transform="translate(105.465,22.8799)">
      <path
         id="path10"
         d="M 0,17.2812 C 0,17.2812 8.736,0 21.101,11.6992 C 34.115,23.4014 75.124,64.4355 75.124,64.4355 C 75.124,64.4355 76.432,65.6836 77.741,65.6836 C 77.741,65.6836 70.548,66.9892 66.033,63.1299 C 61.457,59.2099 24.366,21.4971 24.366,21.4971 C 24.366,21.4971 23.597,21.3203 23.06,22.1494 C 22.764,22.6875 23.06,23.4014 23.06,23.4014 C 23.06,23.4014 62.762,63.7832 64.723,64.4355 C 66.685,65.0303 66.685,65.6836 67.936,65.6836 C 69.242,66.3359 60.804,66.9892 55.571,62.4775 C 50.4,57.9053 21.755,28.623 21.755,28.623 C 21.755,28.623 21.04,28.2685 20.388,28.9219 C 19.731,29.5742 20.445,30.5849 20.445,30.5849 C 20.445,30.5849 53.671,63.1299 53.671,63.1299 C 53.671,63.1299 56.88,65.0303 57.533,65.0303 C 57.533,65.0303 50.4,65.6836 45.172,61.1689 C 40.653,56.5957 18.483,34.5049 18.483,34.5049 C 18.483,34.5049 17.713,33.8515 17.178,34.5049 C 16.702,35.0381 17.236,35.9326 17.236,35.9326 C 17.236,35.9326 41.901,59.8633 41.901,59.8633 C 41.901,59.8633 46.477,63.7832 47.13,63.7832 C 46.477,63.7832 38.039,63.7832 32.809,57.9053 C 27.575,52.6797 13.97,39.6719 13.97,39.6719 C 13.97,39.6719 13.133,38.958 12.66,39.6719 C 12.184,40.3867 12.66,40.9775 12.66,40.9775 C 12.66,40.9775 31.498,59.2099 31.498,59.2099 C 31.498,59.2099 32.809,59.8633 34.115,60.5156 C 34.115,60.5156 20.503,60.1582 5.527,41.2764 C 5.527,41.2764 6,33.9131 4.16,27.9697 C 2.736,23.3398 0,17.2812 0,17.2812 z" />
    </g>
    <g
       id="g12"
       style="fill:#fbb900;fill-rule:evenodd;stroke:none;stroke-width:1;stroke-linecap:butt;stroke-linejoin:miter;stroke-dasharray:none"
       transform="translate(57.5,61.2461)">
      <path
         id="path14"
         d="M 6.6563,21.4394 C 6.6563,21.4394 0,24.7637 4.5762,29.9316 C 5.7666,29.9316 15.0381,29.9316 15.0381,29.9316 C 15.0381,29.9316 15.2754,27.8506 18.0088,25.832 C 20.2656,24.1699 17.6514,20.8437 17.6514,20.8437 C 17.6514,20.8437 22.1709,20.8437 22.8232,22.1494 C 22.8232,22.1494 22.1709,20.1914 23.4766,18.8818 C 24.7842,17.5771 25.4404,14.9658 25.4404,14.9658 C 25.4404,14.9658 26.0938,16.9238 26.7461,17.5771 C 27.3984,18.2295 29.3604,20.1914 29.3604,20.1914 C 29.3604,20.1914 29.418,17.5195 30.0166,16.9238 C 30.6084,16.332 31.9746,14.9658 31.9746,13.0049 C 31.9746,11.7568 31.9746,9.7988 31.9746,9.7988 C 31.9746,9.7988 37.8018,13.6572 37.8018,16.2715 C 37.8018,16.2715 38.4541,14.9658 39.7598,13.6572 C 41.7256,13.0049 43.031,12.4092 43.031,12.4092 C 43.031,12.4092 41.7256,14.9658 46.954,20.8437 C 46.954,20.8437 48.559,19.2393 48.559,17.2812 C 48.559,16.6279 50.993,17.5195 52.125,18.8818 C 53.435,20.4258 53.435,23.458 53.435,23.458 C 53.435,23.458 54.917,21.4394 56.046,20.8437 C 57.178,20.249 59.316,20.8437 59.316,20.8437 C 59.316,20.8437 58.011,24.1113 59.969,26.6641 C 61.935,28.623 63.178,29.9316 63.178,29.9316 C 63.178,29.9316 74.296,29.9316 74.296,29.9316 C 74.296,29.9316 76.852,27.9697 75.54,26.0693 C 74.296,24.1113 72.929,21.6162 72.929,21.6162 C 72.929,21.6162 72.987,22.0303 72.63,23.8125 C 72.392,24.9414 71.025,25.417 71.025,25.417 C 71.025,25.417 70.252,22.9219 69.066,22.1494 C 66.21,20.249 67.102,17.5771 67.102,17.5771 C 67.102,17.5771 65.678,17.7539 64.904,19.5391 C 64.13,21.3779 64.487,22.1494 64.487,22.1494 C 64.487,22.1494 62.287,20.1914 61.935,18.2295 C 61.458,15.9717 62.702,14.7285 62.702,14.7285 C 62.702,14.7285 59.969,13.6572 59.316,14.3135 C 58.011,14.9658 56.701,16.2715 56.701,16.2715 C 56.701,16.2715 58.011,9.7988 56.046,8.4932 C 54.74,7.1846 54.74,7.1846 54.74,7.1846 C 54.74,7.1846 55.277,8.7275 52.781,9.7988 C 50.701,10.6894 50.226,14.1904 48.26,14.9658 C 48.26,15.6191 46.479,11.1045 46.302,9.7988 C 45.887,7.3643 46.777,6.8271 46.777,4.2158 C 46.777,4.2158 43.684,5.6982 41.9023,5.8789 C 40.832,5.998 39.1074,8.4932 39.1074,8.4932 C 39.1074,8.4932 40.5361,5.3447 38.4541,2.6113 C 37.5645,1.4209 37.1504,0 37.1504,0 C 37.1504,0 35.8369,2.6113 34.5928,3.917 C 33.2842,5.2256 30.0166,7.1846 29.3604,9.1465 C 28.0518,11.1045 28.0518,13.0049 28.0518,13.0049 C 28.0518,13.0049 26.7461,10.4512 26.0938,9.7988 C 25.4404,9.1465 23.5986,8.6699 23.5986,8.6699 C 23.5986,8.6699 23.5371,10.6894 21.5176,13.0049 C 19.3145,15.4961 20.9189,18.8818 20.9189,18.8818 C 20.9189,18.8818 16.8799,19.7734 16.3438,18.2295 C 16.0469,17.3389 17.0566,15.9717 17.0566,15.9717 C 17.0566,15.9717 15.0381,16.2715 13.7324,17.5771 C 13.0762,18.8818 12.4199,20.8437 11.7676,22.1494 C 10.4619,24.1113 9.1523,26.0693 8.5,26.0693 C 7.252,25.417 6.6563,21.4394 6.6563,21.4394 z" />
    </g>
    <g
       id="g16"
       style="fill:#fbb900;fill-rule:evenodd;stroke:none;stroke-width:1;stroke-linecap:butt;stroke-linejoin:miter;stroke-dasharray:none"
       transform="translate(74.498,80.1279)">
      <path
         id="path18"
         d="M 0.6534,11.0498 C 0.6534,11.0498 14.3243,11.0498 14.3243,11.0498 C 14.3243,11.0498 14.501,5.6446 12.3624,4.5762 C 8.2627,2.4961 9.2715,0.1231 9.2715,0.1231 C 9.2715,0.1231 7.4297,0 7.1338,1.9619 C 6.6006,4.9307 7.1338,7.7823 7.1338,7.7823 C 7.1338,7.7823 7.1338,7.1875 5.8252,5.8819 C 4.5196,4.5762 3.2676,4.5762 3.2676,4.5762 C 3.2676,4.5762 3.9209,5.8819 3.2676,7.1875 C 2.6153,8.4356 1.3096,8.4356 0.6534,9.7412 C 0,11.0498 0.6534,11.0498 0.6534,11.0498 z" />
    </g>
    <g
       id="g20"
       style="fill:#fbb900;fill-rule:evenodd;stroke:none;stroke-width:1;stroke-linecap:butt;stroke-linejoin:miter;stroke-dasharray:none"
       transform="translate(87.5742,74.9033)">
      <path
         id="path22"
         d="M 2.6153,16.2744 C 2.6153,16.2744 31.2038,16.2744 31.2038,16.2744 C 31.2038,16.2744 27.9368,15.6221 27.9368,13.0069 C 27.2828,11.1065 27.9368,9.1455 27.9368,9.1455 C 27.9368,9.1455 25.3188,9.4453 24.6658,11.1065 C 23.6548,13.6026 22.0508,13.6602 22.0508,13.6602 C 22.0508,13.6602 22.7068,9.8008 21.3948,8.4922 C 20.7418,7.1865 19.4368,5.8819 19.4368,5.8819 C 19.4368,5.8819 19.7328,7.7207 18.7838,8.4922 C 16.9948,9.917 16.8798,9.8008 16.8798,9.8008 C 16.8798,9.8008 14.2628,8.4922 12.9568,5.8819 C 11.6514,3.9199 11.6514,1.9619 11.6514,1.9619 C 11.6514,1.9619 9.6856,1.9619 9.0332,3.9199 C 8.3799,5.8819 7.7276,7.1865 7.7276,7.1865 C 7.7276,7.1865 5.1104,0 3.21,0 C 3.21,0 3.9209,1.4863 3.21,2.6143 C 2.1992,4.2197 0,5.3477 1.3096,7.959 C 4.043,13.3643 2.6153,16.2744 2.6153,16.2744 z" />
    </g>
    <g
       id="g24"
       style="fill:#fbb900;fill-rule:evenodd;stroke:none;stroke-width:1;stroke-linecap:butt;stroke-linejoin:miter;stroke-dasharray:none"
       transform="translate(10.7256,13.792)">
      <path
         id="path26"
         d="M 95.6324,8.0166 C 95.6324,8.0166 91.7674,8.0166 91.7674,8.0166 C 91.7674,8.0166 92.6614,6.1787 91.2914,5.9394 C 90.2814,5.7637 89.0918,5.8213 89.0918,5.8213 C 89.0918,5.8213 89.5054,7.0107 90.1044,7.4258 C 91.5874,8.4316 91.8854,7.0693 91.8854,7.0693 C 91.8854,7.0693 95.6324,7.126 95.6324,7.126 C 95.6324,7.126 103.475,5.168 102.82,14.3144 C 102.82,14.3144 102.167,13.0088 100.209,13.0088 C 98.8994,12.3555 91.7674,11.7031 90.4584,14.9668 C 89.8054,19.4814 89.8054,20.7871 91.7674,24.707 C 93.7284,27.3203 104.131,46.1484 95.6324,59.8633 C 95.6324,59.8633 94.3814,57.9053 95.0344,55.2949 C 95.0344,52.6797 95.0344,50.0654 95.0344,49.4131 C 95.0344,49.4131 88.5,50.0654 87.8437,52.0234 C 87.8437,52.0234 88.5,46.8018 81.959,44.8975 C 81.959,44.8975 82.6113,48.7598 78.749,50.7187 C 75.4785,52.6797 74.1728,56.6006 74.1728,56.6006 C 74.1728,56.6006 71.5586,53.333 70.251,53.333 C 70.251,53.333 59.1943,66.9932 44.874,70.2568 C 44.874,70.2568 48.7978,66.9932 48.7978,66.9932 C 48.7978,66.9932 67.6933,49.4131 67.6933,49.4131 C 67.6933,48.7598 68.1152,48.4033 67.5156,47.8086 C 67.1631,47.4541 66.0889,47.6894 66.0889,47.6894 C 66.0889,47.6894 45.5273,69.6035 39.7002,71.5654 C 33.8183,73.5234 31.2002,73.5234 31.2002,73.5234 C 31.2002,73.5234 34.4707,72.2178 36.4326,70.2568 C 37.0889,68.9512 61.8125,45.5508 61.8125,45.5508 C 61.8125,45.5508 62.2265,44.7207 61.8125,43.9502 C 61.5742,43.5342 60.5068,43.5928 60.5068,43.5928 C 60.5068,43.5928 34.4707,69.6035 34.4707,69.6035 C 34.4707,69.6035 27.9326,76.0771 20.1484,74.7715 C 20.1484,74.7715 24.0713,72.8711 24.7236,72.2178 C 26.6855,70.9121 57.2363,40.3281 57.2363,40.3281 C 57.2363,40.3281 57.7119,39.4346 57.1748,38.7236 C 56.8203,38.248 55.9267,38.3672 55.9267,38.3672 C 55.9267,38.3672 22.7617,71.5654 22.7617,71.5654 C 22.7617,71.5654 16.8808,76.7334 9.7461,75.4238 C 9.7461,75.4238 11.708,74.7715 13.6709,73.5234 C 14.915,72.2178 54.0264,33.7949 54.0264,33.7949 C 54.0264,33.7949 54.917,32.9648 54.0264,31.9521 C 53.6113,31.4795 52.7178,31.8935 52.7178,31.8935 C 52.7178,31.8935 28.5889,55.2949 13.6709,71.5654 C 7.7842,76.7334 0,75.4238 0,75.4238 C 1.2471,74.7715 2.5547,74.7715 3.8633,73.5234 C 5.1709,72.2178 55.9267,20.7871 55.9267,20.7871 C 55.9267,20.7871 63.1182,14.9668 70.251,18.8281 C 76.1348,21.4394 79.4023,27.3203 79.4023,32.4893 C 79.4023,32.4893 80.7148,32.4893 80.7148,32.4893 C 80.7148,32.4893 80.7148,26.0166 75.4785,20.7871 C 75.4785,20.7871 74.1728,18.2344 80.0586,8.4316 C 80.0586,8.4316 76.1348,4.5771 81.3672,0 C 81.3672,0 80.0586,3.2676 84.5762,3.2676 C 89.1523,3.2676 94.3814,2.6152 95.6324,7.126 C 95.6324,7.126 95.6324,8.0166 95.6324,8.0166 z" />
    </g>
    <g
       id="g28"
       style="fill:#0058a1;fill-rule:evenodd;stroke:none;stroke-width:1;stroke-linecap:butt;stroke-linejoin:miter;stroke-dasharray:none"
       transform="translate(72.0684,156.252)">
      <path
         id="path30"
         d="M 15.8222,0.004 C 16.0839,3.315 19.2978,6.093 24.1582,6.093 C 29.1836,6.093 32.7526,4.101 32.9706,0.004 C 32.9706,0.004 48.1476,0.004 48.1476,0.004 C 48.1476,0.004 23.8857,24.067 23.8857,24.067 C 23.8857,24.067 0,0.004 0,0.004 C 0,0.004 15.8222,0.004 15.8222,0.004 z M 27.0078,0.004 C 27.0449,0.115 27.0683,0.235 27.0683,0.357 C 27.0683,1.248 26.0449,1.745 24.499,1.745 C 23.9004,1.745 23.2441,1.588 22.7441,1.276 C 22.2822,0.997 21.9394,0.568 21.7793,0 C 21.7793,0 27.0078,0.004 27.0078,0.004 z" />
    </g>
    <g
       id="g32"
       style="fill:#0058a1;fill-rule:evenodd;stroke:none;stroke-width:1;stroke-linecap:butt;stroke-linejoin:miter;stroke-dasharray:none"
       transform="translate(8.76367,92.4834)">
      <path
         id="path34"
         d="M 63.3047,63.7726 C 63.3047,63.7726 0,0 0,0 C 0,0 175.748,0 175.748,0 C 175.748,0 111.452,63.7726 111.452,63.7726 C 111.452,63.7726 96.2753,63.7726 96.2753,63.7726 C 96.2823,63.6366 96.2893,63.5036 96.2893,63.3686 C 96.2893,56.5076 85.4511,58.2616 85.4511,55.4326 C 85.4511,54.7526 86.0488,54.3626 87.4121,54.3626 C 88.0136,54.3626 88.5654,54.4636 89.0107,54.7016 C 89.456,54.9366 89.7959,55.3276 89.8974,55.9836 C 89.8974,55.9836 95.7653,55.9836 95.7653,55.9836 C 95.3203,52.6826 92.9373,50.0136 87.7011,50.0136 C 82.9883,50.0136 79.5322,52.0306 79.5322,56.0356 C 79.5322,62.9186 89.4384,61.4266 90.3125,63.7756 C 90.3125,63.7756 85.084,63.7726 85.084,63.7726 C 85.0634,63.6976 85.042,63.6266 85.0283,63.5516 C 85.0283,63.5516 79.1133,63.5516 79.1133,63.5516 C 79.1133,63.6266 79.1201,63.7016 79.1269,63.7756 C 79.1269,63.7756 63.3047,63.7726 63.3047,63.7726 z M 132.415,18.0416 C 131.918,13.1986 128.695,10.3456 122.935,10.3456 C 117.673,10.3456 113.539,14.1436 113.539,20.2426 C 113.539,26.3686 117.305,30.1896 123.541,30.1896 C 128.511,30.1896 131.996,27.2586 132.544,22.3906 C 132.544,22.3906 126.601,22.3906 126.601,22.3906 C 126.367,24.1966 125.424,25.5826 123.432,25.5826 C 120.291,25.5826 119.716,23.0976 119.716,20.4536 C 119.716,16.8116 121.025,14.9526 123.201,14.9526 C 125.135,14.9526 126.367,16.0806 126.549,18.0416 C 126.549,18.0416 132.415,18.0416 132.415,18.0416 z M 54.2002,23.6456 C 54.2002,23.6456 50.2968,23.6456 50.2968,23.6456 C 50.2968,23.6456 52.208,16.8896 52.208,16.8896 C 52.208,16.8896 54.2002,23.6456 54.2002,23.6456 z M 48.414,30.0606 C 48.414,30.0606 49.1211,27.5726 49.1211,27.5726 C 49.1211,27.5726 55.2744,27.5726 55.2744,27.5726 C 55.2744,27.5726 56.0058,30.0606 56.0058,30.0606 C 56.0058,30.0606 62.1582,30.0606 62.1582,30.0606 C 62.1582,30.0606 55.4033,11.2056 55.4033,11.2056 C 55.4033,11.2056 49.1211,11.2056 49.1211,11.2056 C 49.1211,11.2056 42.3623,30.0606 42.3623,30.0606 C 42.3623,30.0606 48.414,30.0606 48.414,30.0606 z M 88.4961,8.4936 C 88.4961,8.4936 90.4619,11.6986 90.4619,11.6986 C 90.4619,11.6986 91.7673,11.0456 91.7673,11.0456 C 91.7673,11.0456 91.7673,11.0456 92.4203,11.0456 C 93.7293,11.0456 99.5523,11.0456 99.5523,11.0456 C 99.5523,11.0456 99.5523,7.1875 99.5523,7.1875 C 99.5523,7.1875 90.4619,7.1875 90.4619,7.1875 C 90.4619,7.1875 89.8056,7.0654 89.0957,7.6606 C 88.3808,8.2546 88.4961,8.4936 88.4961,8.4936 z M 90.9238,39.6676 C 92.1483,39.6676 93.3313,39.6586 94.4333,39.6586 C 95.0713,38.6746 96.1803,38.0236 97.4383,38.0236 C 98.7093,38.0236 99.8213,38.6726 100.454,39.6676 C 100.621,39.6676 100.756,39.6676 100.861,39.6676 C 102.823,39.6676 100.828,37.4796 100.828,37.4796 C 100.828,37.4796 96.3093,30.7746 96.3093,30.7746 C 96.3093,30.7746 95.9283,30.8126 95.7313,30.8126 C 93.3753,30.8126 91.4623,28.9056 91.4623,26.5586 C 91.4623,25.7966 91.9953,24.4716 91.9953,24.4716 C 88.6133,19.2356 83.3291,11.3686 83.3291,11.0456 C 83.3291,11.0456 82.6767,11.0456 82.6767,11.0456 C 82.6767,11.0456 76.1347,11.0456 76.1347,11.0456 C 76.1347,11.0456 76.1347,7.1875 76.1347,7.1875 C 76.1347,7.1875 83.3291,7.126 84.5732,7.1875 C 85.5869,7.2441 85.8867,7.8396 85.8867,7.8396 C 85.8867,7.8396 95.3033,22.3266 95.3033,22.3266 C 95.3033,22.3266 95.5893,22.3056 95.7313,22.3056 C 98.0913,22.3056 100.002,24.2086 100.002,26.5586 C 100.002,27.3446 99.4173,28.7106 99.4173,28.7106 C 99.4173,28.7106 99.4443,28.6536 99.4443,28.6536 C 99.4543,28.6326 104.877,36.9386 105.536,38.2336 C 108.803,42.1506 104.503,43.8156 102.823,43.5916 C 102.823,43.5916 101.898,43.5806 100.395,43.5786 C 99.7533,44.5166 98.6693,45.1346 97.4383,45.1346 C 96.2143,45.1346 95.1323,44.5196 94.4873,43.5806 C 93.3443,43.5786 92.1513,43.5786 90.9033,43.5786 C 90.2646,44.5166 89.1758,45.1346 87.9492,45.1346 C 86.7217,45.1346 85.6347,44.4896 84.9883,43.5496 C 83.7099,43.5496 82.4658,43.5376 81.249,43.5376 C 80.6093,44.4746 79.5215,45.0946 78.2949,45.0946 C 77.0664,45.0946 76.0195,44.4956 75.3769,43.5576 C 73.7148,43.5646 72.3818,43.5786 71.5595,43.5916 C 69.3496,43.6316 65.9052,41.2106 69.0019,37.7096 C 69.0019,37.7096 75.3945,28.2456 75.3945,28.2456 C 75.3945,28.2456 74.9492,27.0656 74.9492,26.3656 C 74.9492,24.0156 76.8623,22.1126 79.2187,22.1126 C 79.3515,22.1126 79.6172,22.1316 79.6172,22.1316 C 79.6172,22.1316 83.9209,15.6196 83.9209,15.6196 C 83.9209,15.6196 86.5381,18.8846 86.5381,18.8846 C 86.5381,18.8846 82.9316,24.2676 82.9316,24.2676 C 82.9316,24.2676 83.4863,25.5996 83.4863,26.3656 C 83.4863,28.7136 81.5752,30.6186 79.2187,30.6186 C 79.0117,30.6186 78.7392,30.5566 78.7392,30.5566 C 76.6718,33.5526 74.2929,37.0436 73.5244,38.0426 C 72.2197,40.0046 74.1767,39.6676 74.1767,39.6676 C 74.1767,39.6676 74.6015,39.6176 75.292,39.6176 C 75.9248,38.6346 77.0332,37.9816 78.2949,37.9816 C 79.5693,37.9816 80.6367,38.6726 81.2685,39.6676 C 82.4306,39.6676 83.6689,39.6586 84.9433,39.6586 C 85.5791,38.6746 86.6884,38.0236 87.9492,38.0236 C 89.2207,38.0236 90.292,38.6726 90.9238,39.6676 z" />
    </g>
  </g>
</svg>
